<?xml version="1.0" encoding="utf-8"?>
<!-- Generator: Adobe Illustrator 26.0.1, SVG Export Plug-In . SVG Version: 6.00 Build 0)  -->
<svg version="1.1" id="Layer_1" xmlns="http://www.w3.org/2000/svg" xmlns:xlink="http://www.w3.org/1999/xlink" x="0px" y="0px"
	 viewBox="0 0 4611.1 1344.4" style="enable-background:new 0 0 4611.1 1344.4;" xml:space="preserve">
<style type="text/css">
	.st0{opacity:0.16;}
	.st1{fill:#B58B00;}
	.st2{fill:none;}
</style>
<g id="Layer_2_00000149341905274069397090000009148161945953157252_">
	<g id="Layer_1-2">
		<g class="st0">
			<path class="st1" d="M3770.8,420.5c48.2,0.1,96.2,2.5,144,9c63.6,8.8,126.2,21.9,187.1,42.4c36.9,12.4,72.4,27.9,104.2,50.9
				c23.2,16.8,44,35.9,56.9,62c15.6,31.5,16.4,62.9-1.8,93.9c-13.4,22.9-32,40.8-53.4,55.9c-8,5.7-16.5,10.6-24.8,16
				c-37.3,24.3-78.9,38.5-121.2,50.8c-38,11-76.9,18.8-116,25.3c-75.6,12.5-151.7,15.3-228.1,11.8c-72.2-3.3-143.6-12-213.7-30.1
				c-41.2-10.7-81.2-24.7-119.4-43.7c-23.2-11.6-45.5-24.7-65.3-41.6c-23.8-20.4-42.4-44.1-49.5-75.4c-3.7-16.1-1.9-31.7,3.3-47.1
				c9.5-28.3,28.1-49.9,51.1-68.1c29.6-23.4,63-39.7,97.7-53.6c44.2-17.8,90.1-29.7,136.9-37.8c33.6-5.8,67.3-11.6,101.2-15
				c36.7-3.7,73.8-4.5,110.7-6.6L3770.8,420.5z"/>
			<path class="st1" d="M4115.5,0c30,1.8,67.9,3.8,105.8,6.6c50.5,3.8,100.5,11.9,149.6,24.3c54,13.5,106.3,31.5,154,61.1
				c25.7,15.9,49,34.6,66,60.1c11.7,17.6,19.2,36.8,19.8,57.8c0.5,15.4-4.1,30.3-11.2,44.1c-13.5,26.4-34.4,45.9-58.1,62.9
				c-31.8,22.9-67.2,38.5-103.8,51.8c-40.6,14.7-82.3,25.2-124.8,33c-40.2,7.3-80.7,11.9-121.3,15.6c-1.6,0.2-3.3-0.1-4.8-0.8
				c-37.9-18.7-77.9-31.7-118.6-42.8c-48.7-13.3-98.2-22.3-148.4-28.3c-49-5.8-98.2-8.5-147.6-9.3c-18.3-0.3-36.6,1.1-54.9,2.2
				c-5.8,0.5-11.6-0.7-16.5-3.7c-24.6-14.4-47.5-30.8-66.4-52.4c-17.6-20.1-29.2-43-30.5-70.1c-0.6-11.5,2.4-22.8,6.4-33.6
				c11.3-30,31.9-52.7,57.3-71.5c31.1-22.9,65.2-40,101.3-53.3c41.2-15.2,83.5-26.1,126.6-34.2c50.7-9.5,101.8-14.6,153.2-17.1
				C4068.2,1.7,4087.9,1.1,4115.5,0z"/>
			<path class="st1" d="M3267.6,1042.8c8.3,6,16.1,11.7,24,17.1c45.5,31.2,95.9,51.8,148.1,68.7c43.6,14.1,88.3,23.8,133.5,31.3
				c61.4,10.2,123.3,14.8,185.5,16c39.8,0.8,79.6-0.9,119.3-5c34.9-3.6,69.9-7.6,104.5-13.2c69.7-11.5,137.4-30.7,201.8-60.1
				c30.5-13.9,59.5-30.7,86-51.4c1.3-1,2.6-1.9,4.9-3.4v6.2c0,25.5-0.1,51,0,76.5c0.2,31.1-10.9,57.8-30.9,81.2
				c-20.8,24.3-46.8,41.9-74.6,57c-47.8,26-99.1,42-151.9,54.1c-39.6,9.1-79.8,15-120.2,19.2c-46.9,4.8-94,7.5-141.2,6.7
				c-42.8-0.7-85.5-3.6-128.1-8.6c-50.7-5.9-100.7-15-149.7-29.3c-50.1-14.6-98.2-33.8-141.2-64.2c-23.5-16.6-43.9-36.2-57.3-62.2
				c-7.7-14.5-11.9-30.5-12.4-46.9c-0.7-28.7-0.2-57.3-0.2-86C3267.4,1045.4,3267.5,1044.4,3267.6,1042.8z"/>
			<path class="st1" d="M4275,791.1c0,16.5,0.1,32.3,0,48.1c-0.1,16.3,0,32.7-0.8,49c-0.8,18.4-7.9,35-17.9,50.2
				c-18,27.3-43,47.3-70.9,63.4c-41.8,24.1-86.3,41.9-132.8,54.8c-44.6,12.2-90.1,21-136.1,26.3c-59.7,7.2-119.9,10.1-180.1,8.6
				c-67-1.6-133.6-9.7-199-24.2c-42.2-9.4-83.7-20.5-123.7-37c-34.3-14.2-66.9-31.6-95.2-55.9c-19.6-16.8-36.4-35.9-44.4-61
				c-3.3-10.3-6-21.3-6.4-32.1c-0.9-29.1-0.3-58.3-0.3-87.5c0-0.6,0.1-1.3,0.2-2.3c0.7,0.2,1.3,0.5,1.9,0.9
				c50.3,38.8,107.3,64,167.2,83.4c46.5,15,94,25.5,142.3,33.2c63.3,10.2,127.1,14.8,191.1,15.2c32.9,0.2,66-1.5,98.8-4.5
				c38.1-3.4,76.2-7.9,113.9-14.2c82.2-13.7,161.4-37.6,235.1-77.4c16.5-8.9,31.7-20.2,47.5-30.5
				C4268.5,795.8,4271.4,793.6,4275,791.1z"/>
			<path class="st1" d="M4296.7,491.6c22.6-4.5,44.5-8.5,66.2-13.3c51-11.5,100.8-27.8,148.7-48.9c33.5-14.5,65.2-32.9,94.4-54.9
				c1.3-1,2.7-1.9,4.6-3.3c0.2,1.4,0.4,2.7,0.5,4.1c0,28.2,0.3,56.3-0.1,84.5c-0.5,34.5-15.9,62.4-40.3,85.8
				c-31,29.7-68.5,48.7-107.6,64.9c-32.2,13.2-65.4,23.7-99.4,31.6c-1.3,0.3-2.6,0.5-4.1,0.7
				C4358.5,584.2,4341.1,532.6,4296.7,491.6z"/>
			<path class="st1" d="M4359.6,894.4V730.6c89.4-22.5,176.4-49.8,251.4-107.9v6.5c0,25.3-0.5,50.7,0.1,76
				c0.7,29.8-9.2,55.2-28.2,77.9c-17,20.4-37.9,36.1-60.3,49.6c-50.1,30.2-104.9,48.6-161.6,61.8
				C4360.5,894.5,4360,894.5,4359.6,894.4z"/>
		</g>
		<rect y="0" class="st2" width="4611.1" height="1344.4"/>
	</g>
</g>
</svg>
