<?xml version="1.0" encoding="utf-8"?>
<!-- Generator: Adobe Illustrator 26.0.1, SVG Export Plug-In . SVG Version: 6.00 Build 0)  -->
<svg version="1.1" id="Layer_1" xmlns="http://www.w3.org/2000/svg" xmlns:xlink="http://www.w3.org/1999/xlink" x="0px" y="0px"
	 viewBox="0 0 4611.1 1344.4" style="enable-background:new 0 0 4611.1 1344.4;" xml:space="preserve">
<style type="text/css">
	.st0{opacity:0.16;}
	.st1{fill:#B58B00;}
	.st2{fill:none;}
</style>
<g id="Layer_2_00000175281581213854618190000004682296983087542168_">
	<g id="Layer_1-2">
		<g class="st0">
			<path class="st1" d="M4106.3,1007.2c-0.3,24.7-8.2,45.3-25.4,61.9c-8.8,8.5-19.5,13.8-30.7,18.2c-32.1,12.4-64.3,24.8-96.3,37.3
				c-3.3,1.3-5,0.3-7.2-1.9c-113.3-112.8-226.6-225.5-339.9-338.2c-39.1-38.9-78.3-77.8-117.5-116.5c-2.9-2.9-3.3-5.2-1.9-9
				c12.3-32.3,24-64.9,36.6-97.1c11.6-29.3,32.2-49.4,63.9-55.2c30.8-5.6,57.9,3.3,80,25.4c137.4,137.2,274.7,274.5,411.9,411.8
				C4097.4,961.5,4106.1,983.1,4106.3,1007.2z"/>
			<path class="st1" d="M4214.4,321.5c-1.3-17.1-3.4-33.5-3.5-50c-0.2-32.3,3.1-64.3,16.9-94.1c22-47.4,55.4-84.3,103.5-105.9
				c26.2-11.8,54.4-17.5,83.3-18.7c15.6-0.6,31.3-0.9,46.4-5.7c14.4-4.5,27.4-12.5,37.7-23.4c11.3-11.8,24.5-20.4,41-23.1
				c14.5-2.3,27.6,2,40.2,8.6c23.3,12.1,41.3,47.9,24.4,81c-7.4,14.6-19.2,24.9-30.9,35.6c-30.5,28.2-67.8,41.4-107.9,47.8
				c-18,2.9-36.4,4-54.5,6.1c-41.8,4.8-67.5,32.2-73.5,71.7c-2.3,15.5-0.6,30.9,1.2,46.3c2.8,22.9,0.9,45.5-2.6,68.2
				c-7.5,48.8-33.6,86.8-68.9,119.5c-29.2,27-64.5,40.7-103.1,46.2c-16.3,2.3-32.8,2.9-49.2,4c-22.3,1.5-42.9,7.6-59.9,22.8
				c-3.2,2.9-6.1,6.2-9.1,9.3c-21,22.1-49.7,25.9-75.9,10.6c-23.3-13.6-42.3-49.7-21.3-85.4c7.2-12.2,17.6-21.2,27.8-30.5
				c26.6-24.5,58.4-38.3,93.5-45.6c20.2-4.1,40.7-6.8,61.3-8.1c22.8-1.4,44-7.8,60.1-25.3c13.5-14.6,20.5-32.1,22.3-51.7
				C4214.2,328.1,4214.2,324.4,4214.4,321.5z"/>
			<path class="st1" d="M3453.7,749.2l408.6,408.6c-18.8,7.1-37.8,14.2-56.8,21.3c-32.7,12.3-65.4,24.5-98,37
				c-3.4,1.3-5.2,0.7-7.7-1.7c-100.9-101-201.9-202-302.9-303c-2.2-2.2-3.2-3.9-2-7.2c19.3-50.8,38.6-101.7,57.7-152.5
				C3453,750.9,3453.3,750.1,3453.7,749.2z"/>
			<path class="st1" d="M3361.8,993.4l256,256c-1,0.4-2.4,1-3.8,1.6c-78.6,29.4-157.1,59.2-236,87.9c-31.7,11.5-61.6,4.5-85.7-18.4
				c-18.8-17.8-26.4-41.5-24-67.8c1.8-19.1,10.1-36.1,16.6-53.7c24.9-67.2,49.9-134.3,75.1-201.4
				C3360.6,996.1,3361.3,994.6,3361.8,993.4z"/>
			<path class="st1" d="M4530.3,798.1c-54.7-0.3-106.2,11.9-153.6,39.8c-26,15.3-49.6,34.5-69.9,56.8c-8.2,9-16.6,17.8-27.9,23
				c-24.8,11.6-49.7,6.1-69.1-15.3c-8.2-9-14.5-19.1-16.8-31.3c-2.4-12.9,0.6-24.7,6.2-36.2c6.6-13.5,17.1-24.2,27.2-35
				c45.7-48.7,100.8-82.9,163.3-105.5c31.1-11.3,63.2-18.5,96.3-20.6c19.3-1.2,38.6-2.1,57.9-1.7c17.8,0.3,35,5,47.7,18.4
				c16.5,17.4,19.9,38.6,14.7,61.4c-5.8,25.7-23.6,41.2-51.1,44.8C4547,797.8,4538.6,797.7,4530.3,798.1z"/>
			<path class="st1" d="M3939.1,87.9c-0.5,52.6-9.3,103.7-28.7,152.7c-15.6,39.2-37.5,75.6-64.9,107.7
				c-17.4,20.7-36.6,39.7-57.6,56.8c-32.1,26-74.5,16-92.2-21.4c-12-25.3-9-46,10.4-66.4c11.4-11.9,24-22.7,35.2-34.7
				c34.8-37.3,58.4-80.6,69.8-130.5c5.5-23.9,8-48.3,7.6-72.8c-0.2-13.9,0.4-27.6,5.3-40.8c10.2-27.1,33.4-38.8,55.7-37.9
				c28.3,1.1,49.8,15.7,56.6,47.2c2.8,13,2.7,26.7,3.9,40.1L3939.1,87.9z"/>
			<path class="st1" d="M3434.9,165.4c-31-0.6-55.4-13.5-72.4-39.3c-10.6-16.1-11.7-34.6-10.3-53.4c2.7-37.3,45.8-71,82.1-70
				c34.6,0.9,61.2,15.5,75.2,46.8c22.9,51-9.3,104.4-54.8,113.6C3448.2,164.4,3441.5,164.7,3434.9,165.4z"/>
			<path class="st1" d="M4606.1,413.8c2,50.4-39.7,86.4-84.6,84.9c-37.6-1.3-82.3-33.2-77.7-88.7c3.3-39.4,37.9-77,87.6-74
				C4574.8,338.6,4608.2,373,4606.1,413.8z"/>
			<path class="st1" d="M4606.1,1169.7c1.9,51.2-40.1,86.2-84,85c-38.1-1.1-82.9-33.2-78.4-88.6c3.3-39.3,37.7-77.1,87.5-74.1
				C4574.6,1094.6,4608.1,1128.8,4606.1,1169.7z"/>
		</g>
		<rect y="672.1" class="st2" width="3394.4" height="125.8"/>
	</g>
</g>
</svg>
