<?xml version="1.0" encoding="utf-8"?>
<!-- Generator: Adobe Illustrator 26.0.1, SVG Export Plug-In . SVG Version: 6.00 Build 0)  -->
<svg version="1.1" id="Layer_1" xmlns="http://www.w3.org/2000/svg" xmlns:xlink="http://www.w3.org/1999/xlink" x="0px" y="0px"
	 viewBox="0 0 3339.2 1570.4" style="enable-background:new 0 0 3339.2 1570.4;" xml:space="preserve">
<style type="text/css">
	.st0{opacity:0.16;}
	.st1{fill:#B58B00;}
	.st2{fill:none;}
</style>
<g id="Layer_2_00000077324993637596212480000012589791944114216621_">
	<g id="Layer_1-2">
		<g class="st0">
			<path class="st1" d="M2068,1089.9c6-14.6,11.5-29.1,17.9-43.2c19.2-42.2,45.6-80.8,77.9-114.1c29.8-31,64.5-57,102.7-77
				c15.6-8.2,31.6-15.9,47.8-22.7c71.9-30.2,143.9-60.2,216.1-89.9c2.6-0.8,5.1-1.9,7.4-3.4c-1.2-1.6-2.9-3-3.6-4.8
				c-30.9-74-61.7-148-92.4-222c-25.2-60.8-37.3-123.9-33.4-189.8c2-34,7.8-67.5,18.7-99.8c6.4-18.9,13.9-37.5,20.9-56.2
				c0.6-1.5,1.2-3,1.9-4.7c-5.8-3.3-11.4-6.2-16.6-9.6c-30.8-20.5-43-56.2-31.7-91.5c6.2-19.3,16.5-35.7,33.3-47.2
				c20.8-14.3,43.7-17.1,67.7-10.2c7.3,2.2,14.5,4.8,21.5,7.8c253,104.3,506,208.6,759,313c13.4,5.5,25.8,12.6,35.5,23.5
				c17,19.1,23.8,41.5,19.2,66.6c-4.4,24-15.2,44.8-36,58.9c-19.5,13.2-40.8,17.2-63.8,11.6c-5-1.2-9.8-2.8-15.3-4.4
				c-1.2,2.9-2.4,5.6-3.4,8.3c-12.6,32.7-28.8,63.9-48.2,93c-34.7,51.8-81,95-135.1,126c-17.4,9.9-35.3,18.8-53.8,26.5
				c-74.3,31.4-148.9,62.2-223.4,93.2c-1.7,0.7-3.3,1.5-6.7,3c1.3,1.8,2.8,3.3,3.5,5.1c29.9,71.5,59.7,143.1,89.5,214.6
				c15.6,37.4,27.5,75.8,33.2,116c5.9,41.6,5.2,83.9-2,125.3c-5.6,32.3-14.7,64-27,94.4c-3,7.4-6.1,14.8-9.2,22.4
				c5.2,2.9,10.3,5.3,15,8.3c32.5,20.6,45.2,58.1,32.7,94.5c-7.6,22-20.3,39.7-41.3,50.4c-23.4,11.9-47.2,11-71,1l-3.7-1.5
				l-763.7-315c-11.4-4.7-22.4-10.2-31.7-18.6c-22.5-20.2-31.3-53.5-22.1-82.2c5.4-16.7,13.4-31.6,26.7-43.2
				c19.7-17,42.5-22.7,68-17.7C2054.9,1085.7,2060.7,1087.8,2068,1089.9z M2604.1,225.6c-4.1,9.9-8.2,19.6-12.1,29.3
				c-17.6,44.1-23.3,89.6-16.1,136.7c0.4,2.8,1.5,4.3,4.1,5.4c127.2,52.4,254.5,104.9,381.7,157.4c2.8,1.2,4.9,1,7.2-1
				c9.3-7.6,19.1-14.6,28-22.6c16.7-15,31.4-32,42.1-51.6c10.2-18.7,18.3-38.4,27.3-57.8c0.6-1.5,1.1-3,1.6-4.5L2604.1,225.6z
				 M2710.5,1174.2c-2.7-18.3-8.2-34.8-14.9-51c-31.1-74.8-62.2-149.5-93.3-224.2c-0.7-1.6-1.4-3.2-2.5-5.7c-2.2,1.2-3.9,2.2-5.7,3
				c-72.9,30.4-145.8,60.7-218.7,91c-8.8,3.7-17.5,7.4-26,11.7c-9.1,4.6-17.9,9.8-27.2,15L2710.5,1174.2z"/>
		</g>
		<rect y="109.8" class="st2" width="3146.7" height="1344.4"/>
	</g>
</g>
</svg>
