<?xml version="1.0" encoding="utf-8"?>
<!-- Generator: Adobe Illustrator 26.0.1, SVG Export Plug-In . SVG Version: 6.00 Build 0)  -->
<svg version="1.1" id="Layer_1" xmlns="http://www.w3.org/2000/svg" xmlns:xlink="http://www.w3.org/1999/xlink" x="0px" y="0px"
	 viewBox="0 0 4726.4 1467" style="enable-background:new 0 0 4726.4 1467;" xml:space="preserve">
<style type="text/css">
	.st0{opacity:0.16;}
	.st1{fill:#B58B00;}
	.st2{fill:none;}
</style>
<g id="Layer_2_00000150073058063906081550000000325473460312906646_">
	<g id="Layer_1-2">
		<g class="st0">
			<path class="st1" d="M3459.1,830.5l-165.4-559.8l800.2-236.4l165.4,559.9l-239.4,70.7l-1.7-5.7c-10.9-36.8-21.5-73.6-32.8-110.2
				c-2.3-7.1-5.7-13.8-10.2-19.8c-8.9-12.1-21.9-14.9-36.1-13.3c-5.3,0.7-10.5,1.9-15.6,3.5c-76.1,22.4-152.2,44.9-228.2,67.5
				c-13.9,4.1-25.6,11.5-31.1,25.8c-4,10.5-2.6,21.1,0.4,31.4c10.6,36.3,21.4,72.6,32.1,108.9l2,6.7L3459.1,830.5z"/>
			<path class="st1" d="M4425,1155.3l-800.2,236.4l-141.8-479.9l239.7-70.8c0.6,2.1,1.2,4.2,1.8,6.2c10.8,36.4,21.3,73,32.5,109.3
				c2.2,7.3,5.7,14.2,10.2,20.3c8.6,11.5,21.1,15.2,35.1,13.4c4.8-0.7,9.5-1.7,14.1-3.1c77.1-22.7,154.1-45.4,231.1-68.3
				c10-3,19-7.7,25.7-16.3c6.8-8.8,8-18.9,7-29.3c-0.6-5.1-1.8-10.2-3.3-15.1c-10.4-35.3-20.8-70.7-31.3-106c-0.6-1.9-1.1-3.8-1.8-6
				l239.4-70.7L4425,1155.3z"/>
			<path class="st1" d="M4340.4,570.3L4175,10.1c7.9-1.9,15.6-4,23.4-5.4c27-4.8,54.1-6.4,81.5-2.7c31.9,4.3,62.7,14.8,90.6,30.9
				c28,16,52.5,37.3,72.3,62.8c13.2,16.8,24,35.3,32,55.1c5.5,13.7,10.6,27.7,14.8,41.9c29.7,99.8,59.2,199.7,88.6,299.6l2.1,7
				L4340.4,570.3z"/>
			<path class="st1" d="M3138.3,925.3l-1.8-6c-30.5-103.4-61.1-206.8-91.6-310.2c-12.9-43.9-15.6-88.5-4.9-133.2
				c8.9-37.4,26.3-72.3,51-101.9c21.5-26,48.3-47.2,78.6-62.1c13.6-6.8,28.1-12,42.6-18.2l165.6,560.8L3138.3,925.3z"/>
			<path class="st1" d="M4604.2,580.6l1.7,5.9c38.5,130.3,77,260.6,115.5,390.8c4.8,16.2,6.9,32.6,2.6,49.2
				c-7.4,28.3-26,46.1-52.8,56.1c-2.6,1-5.4,1.8-8.1,2.6l-151,44.6l-5.6,1.7l-141.9-480.2L4604.2,580.6z"/>
			<path class="st1" d="M3162.2,1006.5l239.6-70.8l141.8,480.2l-5.1,1.5c-50.7,15-101.3,29.9-152,44.9c-15.9,4.7-32,6.5-48.3,2.3
				c-24-6.3-41.3-20.9-51.9-43.2c-2.7-5.9-5-12-6.8-18.2c-38.6-130.2-77.1-260.5-115.5-390.8L3162.2,1006.5z"/>
			<path class="st1" d="M3911.1,741.6c7.6,25.9,15.4,51.7,22.9,77.7c3.7,12.9,4.2,25.9-4.1,37.3c-9.9,13.6-24.1,19.1-40.6,17.9
				c-15.2-1.1-25.4-9.8-31.4-23.5c-1.6-3.5-3-7-4.1-10.7c-15.1-51-30.2-101.9-45.2-152.9c-2.8-9.6-3.8-19.3-0.5-29
				c5.1-15.2,22-26.4,38.6-26.9c21.9-0.6,34.8,11.1,41.1,31.5C3896,689.1,3903.4,715.4,3911.1,741.6z"/>
		</g>
		<rect y="36" class="st2" width="4611.1" height="1344.4"/>
	</g>
</g>
</svg>
